<svg xmlns="http://www.w3.org/2000/svg" viewBox="0 0 109.37 93.28"><defs><style>.cls-1{fill:#8bc53f;}</style></defs><title>2Middel 2</title><g id="Laag_2" data-name="Laag 2"><g id="Laag_2-2" data-name="Laag 2"><path d="M.39,16l4.77-.86v2.33c0,2.62,1.5,3.8,3.51,3.8S12,19.8,12,17.58V0H17V17.58A8.13,8.13,0,0,1,8.71,26c-5,0-8.32-3.3-8.32-8.28Z"/><path d="M37,20.38c-.9,3.05-3.7,5.59-8,5.59-4.84,0-9.11-3.48-9.11-9.43,0-5.63,4.16-9.29,8.68-9.29,5.45,0,8.72,3.48,8.72,9.14,0,.69-.07,1.4-.07,1.48H24.59a4.29,4.29,0,0,0,4.45,4,3.91,3.91,0,0,0,4-2.69ZM32.59,14.6c-.07-1.76-1.22-3.48-4-3.48A3.81,3.81,0,0,0,24.7,14.6Z"/><path d="M51.45,23.53a5.59,5.59,0,0,1-4.88,2.37c-4.27,0-6.71-3.12-6.71-7V7.78h4.77V18c0,2,1,3.55,3.23,3.55A3.18,3.18,0,0,0,51.2,18V7.78H56V22.24a26.89,26.89,0,0,0,.18,3.19H51.59A12.24,12.24,0,0,1,51.45,23.53Z"/><path d="M63.24,25.26a3.94,3.94,0,0,0,4.12,3.33c3,0,4.7-1.51,4.7-4.91V22.39a5.6,5.6,0,0,1-4.91,2.26c-4.7,0-8.22-3.63-8.22-8.58a8.29,8.29,0,0,1,8.22-8.61c2.8,0,4.41,1.22,5,2.41V7.78h4.59V23.53c0,4.85-2.62,9.26-9.25,9.26-4.85,0-8.07-3-8.58-6.39Zm8.89-9.19a4.2,4.2,0,1,0-8.39,0c0,2.76,1.76,4.49,4.23,4.49S72.13,18.8,72.13,16.07Z"/><path d="M97.63,23c0,1.18.07,2.47.14,3.19H93.22A11.38,11.38,0,0,1,93,24.13a5.54,5.54,0,0,1-5,2.48c-5,0-8.61-3.95-8.61-9.29,0-5.17,3.48-9.22,8.46-9.22,3,0,4.49,1.25,5,2.19V.21h4.7Zm-9-.65c2.44,0,4.34-1.86,4.34-5.06s-1.9-4.91-4.34-4.91-4.38,1.79-4.38,5S86.15,22.34,88.66,22.34Z"/><path d="M10.23,33.65c4.95,0,7.75,2.91,7.75,6.86A5.66,5.66,0,0,1,14.29,46a6,6,0,0,1,4.48,6c0,4.13-3.08,7.11-7.86,7.11H1.09V33.65ZM9.48,44.16c2.26,0,3.62-1.25,3.62-3.19s-1.25-3.16-3.66-3.16H6v6.35ZM10,55c2.41,0,3.84-1.25,3.84-3.3s-1.29-3.41-3.77-3.41H6V55Z"/><path d="M26,48.94l4.34-.65c1-.14,1.33-.65,1.33-1.26,0-1.25-1-2.29-3-2.29a3.13,3.13,0,0,0-3.37,2.87l-4.24-.9c.29-2.76,2.84-5.81,7.57-5.81,5.6,0,7.68,3.16,7.68,6.71v8.68a19.41,19.41,0,0,0,.22,2.8H32.14A11.81,11.81,0,0,1,32,57a5.9,5.9,0,0,1-5.2,2.62C23,59.59,20.7,57,20.7,54.28,20.7,51.12,23,49.37,26,48.94Zm5.67,3v-.79l-4,.61A2.23,2.23,0,0,0,25.47,54a2.07,2.07,0,0,0,2.29,2C29.77,56,31.64,55.07,31.64,52Z"/><path d="M42.89,53.28A2.94,2.94,0,0,0,46.12,56c1.58,0,2.33-.83,2.33-1.76s-.54-1.44-1.9-1.72L44.22,52c-3.41-.75-4.95-2.8-4.95-5.27,0-3.16,2.79-5.78,6.6-5.78,5,0,6.71,3.19,6.92,5.09l-4,.9a2.7,2.7,0,0,0-2.91-2.37,2,2,0,0,0-2.26,1.76c0,.86.65,1.4,1.62,1.58l2.51.54c3.48.72,5.24,2.83,5.24,5.41,0,2.87-2.23,5.82-6.86,5.82-5.31,0-7.14-3.45-7.35-5.46Z"/><path d="M65.34,48.86l7.21,10.23H66.71L62,52.34l-2,2.08v4.67H55.3v-26h4.77V48l6.1-6.56h6.24Z"/><path d="M89.58,54c-.89,3-3.69,5.6-8,5.6-4.85,0-9.12-3.48-9.12-9.44,0-5.63,4.17-9.29,8.69-9.29,5.45,0,8.71,3.48,8.71,9.15,0,.68-.07,1.4-.07,1.47H77.13a4.31,4.31,0,0,0,4.45,4,3.9,3.9,0,0,0,4-2.69Zm-4.45-5.78c-.07-1.75-1.22-3.48-3.94-3.48a3.82,3.82,0,0,0-4,3.48Z"/><path d="M99.43,41.44H103v4.23H99.43v7.39c0,1.54.72,2,2.08,2A7,7,0,0,0,103,55v3.95a7.06,7.06,0,0,1-2.69.43c-3.44,0-5.6-2.05-5.6-5.45V45.67H91.5V41.44h.9a2.54,2.54,0,0,0,2.72-2.8V36.16h4.31Z"/><path class="cls-1" d="M14.49,74.73a4.33,4.33,0,0,0-4.62-3.58c-2.41,0-4,1.54-4,3.22,0,1.4.9,2.52,2.77,2.87l3.55.69c4.62.89,7.1,3.91,7.1,7.49,0,3.91-3.26,7.86-9.18,7.86-6.75,0-9.73-4.34-10.12-8L4.59,84.1c.22,2.51,2,4.77,5.56,4.77,2.66,0,4.13-1.33,4.13-3.12,0-1.48-1.11-2.62-3.09-3L7.64,82C3.59,81.19,1,78.57,1,74.73c0-4.52,4.05-8,8.86-8,6.17,0,8.54,3.73,9.11,6.6Z"/><path class="cls-1" d="M26.38,83.92c0,3.19,2.08,5,4.52,5a4.05,4.05,0,0,0,4.06-3l4.19,1.39a8.19,8.19,0,0,1-8.25,6,9.13,9.13,0,0,1-9.29-9.36,9,9,0,0,1,9.15-9.37c4.81,0,7.53,3,8.28,6l-4.26,1.43a3.85,3.85,0,0,0-3.91-3C28.43,79,26.38,80.72,26.38,83.92Z"/><path class="cls-1" d="M46.74,82.59l4.34-.65c1-.14,1.33-.64,1.33-1.25,0-1.26-1-2.3-3-2.3a3.13,3.13,0,0,0-3.37,2.87l-4.24-.9c.29-2.76,2.84-5.81,7.57-5.81,5.6,0,7.68,3.16,7.68,6.71v8.68a21,21,0,0,0,.21,2.8H52.91a11.73,11.73,0,0,1-.18-2.12,5.9,5.9,0,0,1-5.2,2.62c-3.77,0-6.07-2.54-6.07-5.31C41.46,84.78,43.8,83,46.74,82.59Zm5.67,3v-.79l-4,.61a2.22,2.22,0,0,0-2.18,2.23,2.06,2.06,0,0,0,2.29,2C50.54,89.69,52.41,88.72,52.41,85.6Z"/><path class="cls-1" d="M59.59,92.74v-26h4.77v26Z"/><path class="cls-1" d="M84.73,89.55c0,1.18.07,2.47.14,3.19H80.32a12.36,12.36,0,0,1-.18-2,5.53,5.53,0,0,1-5,2.47c-5,0-8.61-3.94-8.61-9.29,0-5.17,3.48-9.22,8.46-9.22,3,0,4.49,1.26,5,2.19V66.77h4.7Zm-9-.65c2.44,0,4.34-1.86,4.34-5.06s-1.9-4.91-4.34-4.91-4.37,1.79-4.37,4.95S73.25,88.9,75.76,88.9Z"/><path class="cls-1" d="M90,66.34a2.94,2.94,0,1,1-2.94,3A2.95,2.95,0,0,1,90,66.34Zm-2.36,26.4V75.09h4.77V92.74Z"/><path class="cls-1" d="M99.25,86.93a2.94,2.94,0,0,0,3.23,2.69c1.58,0,2.34-.82,2.34-1.76s-.54-1.43-1.91-1.72l-2.33-.54c-3.41-.75-5-2.8-5-5.27,0-3.16,2.8-5.78,6.6-5.78,5,0,6.71,3.2,6.93,5.1l-4,.89a2.67,2.67,0,0,0-2.9-2.36c-1.26,0-2.26.75-2.26,1.75s.64,1.4,1.61,1.58l2.51.54c3.48.72,5.24,2.84,5.24,5.42,0,2.87-2.22,5.81-6.85,5.81-5.31,0-7.14-3.44-7.35-5.45Z"/></g></g></svg>